<?xml version="1.0" encoding="UTF-8"?>
<svg height="600" width="800" xmlns="http://www.w3.org/2000/svg" xmlns:xlink="http://www.w3.org/1999/xlink">
    <g id="Notes" font-family="'LucidaGrande', 'Lucida Grande', sans-serif" font-size="13">
        <rect fill="white" height="600.0" width="800.0" x="0.0" y="0.0" />
        <g font-size="13">
            <text x="18.0" y="176.0">Small</text>
            <text x="18.0" y="376.0">Medium</text>
            <text x="18.0" y="576.0">Large</text>
        </g>
        <g font-size="9">
            <text x="250.0" y="30.0">Ultralight</text>
            <text x="450.0" y="30.0">Regular</text>
            <text x="650.0" y="30.0">Black</text>
            <text id="template-version" fill="#505050" text-anchor="end" x="785.0" y="575.0">Template v.3.0</text>
            <a href="https://wangchujiang.com/#/app">
                <text fill="#505050" text-anchor="end" x="785.0" y="590.0">https://wangchujiang.com/#/app</text>
            </a>
        </g>
    </g>
    <g id="Guides" stroke="rgb(39, 170, 225)" stroke-width="0.5">
        <path id="Capline-S" d="M18,76 l800,0" />
        <path id="H-reference" d="M85,145.755 L87.685,145.755 L113.369,79.287 L114.052,79.287 L114.052,76 L112.148,76 L85,145.755 Z M95.693,121.536 L130.996,121.536 L130.263,119.313 L96.474,119.313 L95.693,121.536 Z M139.15,145.755 L141.787,145.755 L114.638,76 L113.466,76 L113.466,79.287 L139.15,145.755 Z" stroke="none" />
        <path id="Baseline-S" d="M18,146 l800,0" />
        <path id="left-margin-Ultralight-S" d="M221,56 l0,110" />
        <path id="right-margin-Ultralight-S" d="M309,56 l0,110" />
        <path id="left-margin-Regular-S" d="M421,56 l0,110" />
        <path id="right-margin-Regular-S" d="M509,56 l0,110" />
        <path id="left-margin-Black-S" d="M621,56 l0,110" />
        <path id="right-margin-Black-S" d="M709,56 l0,110" />
        <path id="Capline-M" d="M18,276 l800,0" />
        <path id="Baseline-M" d="M18,346 l800,0" />
        <path id="Capline-L" d="M18,476 l800,0" />
        <path id="Baseline-L" d="M18,546 l800,0" />
    </g>
    <g id="Symbols">
        <g id="Ultralight-S">
            <path d="M271.364,146 L258.636,146 L258.636,142.818 L271.364,142.818 Z M268.182,107.818 L268.182,98.273 L261.818,98.273 L261.818,107.818 L258.636,112.591 L258.636,139.636 L271.364,139.636 L271.364,112.591 Z M265,82.364 C265,82.364 261.818,85.545 261.818,91.909 L261.818,95.091 L268.182,95.091 L268.182,91.909 C268.182,91.909 268.182,85.545 265,82.364" />
        </g>
        <g id="Regular-S">
            <path d="M471.364,146 L458.636,146 L458.636,142.818 L471.364,142.818 Z M468.182,107.818 L468.182,98.273 L461.818,98.273 L461.818,107.818 L458.636,112.591 L458.636,139.636 L471.364,139.636 L471.364,112.591 Z M465,82.364 C465,82.364 461.818,85.545 461.818,91.909 L461.818,95.091 L468.182,95.091 L468.182,91.909 C468.182,91.909 468.182,85.545 465,82.364" />
        </g>
        <g id="Black-S">
            <path d="M671.364,146 L658.636,146 L658.636,142.818 L671.364,142.818 Z M668.182,107.818 L668.182,98.273 L661.818,98.273 L661.818,107.818 L658.636,112.591 L658.636,139.636 L671.364,139.636 L671.364,112.591 Z M665,82.364 C665,82.364 661.818,85.545 661.818,91.909 L661.818,95.091 L668.182,95.091 L668.182,91.909 C668.182,91.909 668.182,85.545 665,82.364" />
        </g>
    </g>
</svg>