<?xml version="1.0" encoding="UTF-8"?>
<svg height="600" width="800" xmlns="http://www.w3.org/2000/svg" xmlns:xlink="http://www.w3.org/1999/xlink">
    <g id="Notes" font-family="'LucidaGrande', 'Lucida Grande', sans-serif" font-size="13">
        <rect fill="white" height="600.0" width="800.0" x="0.0" y="0.0" />
        <g font-size="13">
            <text x="18.0" y="176.0">Small</text>
            <text x="18.0" y="376.0">Medium</text>
            <text x="18.0" y="576.0">Large</text>
        </g>
        <g font-size="9">
            <text x="250.0" y="30.0">Ultralight</text>
            <text x="450.0" y="30.0">Regular</text>
            <text x="650.0" y="30.0">Black</text>
            <text id="template-version" fill="#505050" text-anchor="end" x="785.0" y="575.0">Template v.3.0</text>
            <a href="https://wangchujiang.com/#/app">
                <text fill="#505050" text-anchor="end" x="785.0" y="590.0">https://wangchujiang.com/#/app</text>
            </a>
        </g>
    </g>
    <g id="Guides" stroke="rgb(39, 170, 225)" stroke-width="0.5">
        <path id="Capline-S" d="M18,76 l800,0" />
        <path id="H-reference" d="M85,145.755 L87.685,145.755 L113.369,79.287 L114.052,79.287 L114.052,76 L112.148,76 L85,145.755 Z M95.693,121.536 L130.996,121.536 L130.263,119.313 L96.474,119.313 L95.693,121.536 Z M139.15,145.755 L141.787,145.755 L114.638,76 L113.466,76 L113.466,79.287 L139.15,145.755 Z" stroke="none" />
        <path id="Baseline-S" d="M18,146 l800,0" />
        <path id="left-margin-Ultralight-S" d="M215.643,56 l0,110" />
        <path id="right-margin-Ultralight-S" d="M314.357,56 l0,110" />
        <path id="left-margin-Regular-S" d="M415.643,56 l0,110" />
        <path id="right-margin-Regular-S" d="M514.357,56 l0,110" />
        <path id="left-margin-Black-S" d="M615.643,56 l0,110" />
        <path id="right-margin-Black-S" d="M714.357,56 l0,110" />
        <path id="Capline-M" d="M18,276 l800,0" />
        <path id="Baseline-M" d="M18,346 l800,0" />
        <path id="Capline-L" d="M18,476 l800,0" />
        <path id="Baseline-L" d="M18,546 l800,0" />
    </g>
    <g id="Symbols">
        <g id="Ultralight-S">
            <path d="M304.336,110.925 C304.336,113.385 302.286,115.313 299.962,115.313 L295.588,115.313 L295.684,137.211 C295.684,137.58 295.657,137.949 295.616,138.318 L295.616,140.532 C295.616,143.553 293.169,146 290.148,146 L287.961,146 C287.81,146 287.66,146 287.51,145.986 C287.318,146 287.127,146 286.936,146 L282.493,145.986 L279.212,145.986 C276.192,145.986 273.745,143.54 273.745,140.519 L273.745,128.49 C273.745,126.07 271.79,124.116 269.371,124.116 L260.622,124.116 C258.203,124.116 256.248,126.07 256.248,128.49 L256.248,140.519 C256.248,143.54 253.801,145.986 250.781,145.986 L243.139,145.986 C242.934,145.986 242.729,145.973 242.524,145.959 C242.36,145.973 242.196,145.986 242.032,145.986 L239.845,145.986 C236.824,145.986 234.378,143.54 234.378,140.519 L234.378,125.209 C234.378,125.086 234.378,124.949 234.391,124.826 L234.391,115.299 L230.017,115.299 C227.557,115.299 225.643,113.385 225.643,110.911 C225.643,109.681 226.053,108.587 227.01,107.631 L262.044,77.094 C263.001,76.137 264.094,76 265.051,76 C266.008,76 267.102,76.273 267.922,76.957 L302.833,107.644 C303.926,108.601 304.473,109.695 304.336,110.925" />
        </g>
        <g id="Regular-S">
            <path d="M504.336,110.925 C504.336,113.385 502.286,115.313 499.962,115.313 L495.588,115.313 L495.684,137.211 C495.684,137.58 495.657,137.949 495.616,138.318 L495.616,140.532 C495.616,143.553 493.169,146 490.148,146 L487.961,146 C487.81,146 487.66,146 487.51,145.986 C487.318,146 487.127,146 486.936,146 L482.493,145.986 L479.212,145.986 C476.192,145.986 473.745,143.54 473.745,140.519 L473.745,128.49 C473.745,126.07 471.79,124.116 469.371,124.116 L460.622,124.116 C458.203,124.116 456.248,126.07 456.248,128.49 L456.248,140.519 C456.248,143.54 453.801,145.986 450.781,145.986 L443.139,145.986 C442.934,145.986 442.729,145.973 442.524,145.959 C442.36,145.973 442.196,145.986 442.032,145.986 L439.845,145.986 C436.824,145.986 434.378,143.54 434.378,140.519 L434.378,125.209 C434.378,125.086 434.378,124.949 434.391,124.826 L434.391,115.299 L430.017,115.299 C427.557,115.299 425.643,113.385 425.643,110.911 C425.643,109.681 426.053,108.587 427.01,107.631 L462.044,77.094 C463.001,76.137 464.094,76 465.051,76 C466.008,76 467.102,76.273 467.922,76.957 L502.833,107.644 C503.926,108.601 504.473,109.695 504.336,110.925" />
        </g>
        <g id="Black-S">
            <path d="M704.336,110.925 C704.336,113.385 702.286,115.313 699.962,115.313 L695.588,115.313 L695.684,137.211 C695.684,137.58 695.657,137.949 695.616,138.318 L695.616,140.532 C695.616,143.553 693.169,146 690.148,146 L687.961,146 C687.81,146 687.66,146 687.51,145.986 C687.318,146 687.127,146 686.936,146 L682.493,145.986 L679.213,145.986 C676.192,145.986 673.745,143.54 673.745,140.519 L673.745,128.49 C673.745,126.07 671.79,124.116 669.371,124.116 L660.622,124.116 C658.203,124.116 656.248,126.07 656.248,128.49 L656.248,140.519 C656.248,143.54 653.801,145.986 650.781,145.986 L643.139,145.986 C642.934,145.986 642.729,145.973 642.524,145.959 C642.36,145.973 642.196,145.986 642.032,145.986 L639.845,145.986 C636.824,145.986 634.378,143.54 634.378,140.519 L634.378,125.209 C634.378,125.086 634.378,124.949 634.391,124.826 L634.391,115.299 L630.017,115.299 C627.557,115.299 625.643,113.385 625.643,110.911 C625.643,109.681 626.053,108.587 627.01,107.631 L662.044,77.094 C663.001,76.137 664.094,76 665.051,76 C666.008,76 667.102,76.273 667.922,76.957 L702.833,107.644 C703.926,108.601 704.473,109.695 704.336,110.925" />
        </g>
    </g>
</svg>