<?xml version="1.0" encoding="UTF-8"?>
<svg height="600" width="800" xmlns="http://www.w3.org/2000/svg" xmlns:xlink="http://www.w3.org/1999/xlink">
    <g id="Notes" font-family="'LucidaGrande', 'Lucida Grande', sans-serif" font-size="13">
        <rect fill="white" height="600.0" width="800.0" x="0.0" y="0.0" />
        <g font-size="13">
            <text x="18.0" y="176.0">Small</text>
            <text x="18.0" y="376.0">Medium</text>
            <text x="18.0" y="576.0">Large</text>
        </g>
        <g font-size="9">
            <text x="250.0" y="30.0">Ultralight</text>
            <text x="450.0" y="30.0">Regular</text>
            <text x="650.0" y="30.0">Black</text>
            <text id="template-version" fill="#505050" text-anchor="end" x="785.0" y="575.0">Template v.3.0</text>
            <a href="https://wangchujiang.com/#/app">
                <text fill="#505050" text-anchor="end" x="785.0" y="590.0">https://wangchujiang.com/#/app</text>
            </a>
        </g>
    </g>
    <g id="Guides" stroke="rgb(39, 170, 225)" stroke-width="0.5">
        <path id="Capline-S" d="M18,76 l800,0" />
        <path id="H-reference" d="M85,145.755 L87.685,145.755 L113.369,79.287 L114.052,79.287 L114.052,76 L112.148,76 L85,145.755 Z M95.693,121.536 L130.996,121.536 L130.263,119.313 L96.474,119.313 L95.693,121.536 Z M139.15,145.755 L141.787,145.755 L114.638,76 L113.466,76 L113.466,79.287 L139.15,145.755 Z" stroke="none" />
        <path id="Baseline-S" d="M18,146 l800,0" />
        <path id="left-margin-Ultralight-S" d="M220.002,56 l0,110" />
        <path id="right-margin-Ultralight-S" d="M309.998,56 l0,110" />
        <path id="left-margin-Regular-S" d="M420.002,56 l0,110" />
        <path id="right-margin-Regular-S" d="M509.998,56 l0,110" />
        <path id="left-margin-Black-S" d="M620.002,56 l0,110" />
        <path id="right-margin-Black-S" d="M709.998,56 l0,110" />
        <path id="Capline-M" d="M18,276 l800,0" />
        <path id="Baseline-M" d="M18,346 l800,0" />
        <path id="Capline-L" d="M18,476 l800,0" />
        <path id="Baseline-L" d="M18,546 l800,0" />
    </g>
    <g id="Symbols">
        <g id="Ultralight-S">
            <path d="M299.714,76.283 C298.146,74.713 280.762,79.987 275.266,84.337 L291.665,100.736 C296.015,95.238 301.287,77.855 299.714,76.283 Z" />
            <path d="M266.742,92.773 L261.09,94.185 L235.771,119.505 L237.419,121.154 L235.182,123.389 L233.533,121.742 L230.002,125.273 L250.727,146 L254.26,142.467 L252.611,140.818 L254.848,138.581 L256.497,140.228 L281.815,114.912 L283.229,109.258 C283.229,109.258 285.786,106.698 289.826,102.663 L273.339,86.178 C269.301,90.211 266.742,92.773 266.742,92.773 Z" />
        </g>
        <g id="Regular-S">
            <path d="M499.714,76.283 C498.146,74.713 480.762,79.987 475.266,84.337 L491.665,100.736 C496.015,95.238 501.287,77.855 499.714,76.283 Z" />
            <path d="M466.742,92.773 L461.09,94.185 L435.771,119.505 L437.419,121.154 L435.182,123.389 L433.533,121.742 L430.002,125.273 L450.727,146 L454.26,142.467 L452.611,140.818 L454.848,138.581 L456.497,140.228 L481.815,114.912 L483.229,109.258 C483.229,109.258 485.786,106.698 489.826,102.663 L473.339,86.178 C469.301,90.211 466.742,92.773 466.742,92.773 Z" />
        </g>
        <g id="Black-S">
            <path d="M699.714,76.283 C698.146,74.713 680.762,79.987 675.266,84.337 L691.665,100.736 C696.015,95.238 701.287,77.855 699.714,76.283 Z" />
            <path d="M666.742,92.773 L661.09,94.185 L635.771,119.505 L637.419,121.154 L635.182,123.389 L633.533,121.742 L630.002,125.273 L650.727,146 L654.26,142.467 L652.611,140.818 L654.848,138.581 L656.497,140.228 L681.815,114.912 L683.229,109.258 C683.229,109.258 685.786,106.698 689.826,102.663 L673.339,86.178 C669.301,90.211 666.742,92.773 666.742,92.773 Z" />
        </g>
    </g>
</svg>